<svg width="165.000000" height="144.000000" viewBox="0 0 165 144" fill="none" xmlns="http://www.w3.org/2000/svg" xmlns:xlink="http://www.w3.org/1999/xlink">
	<desc>
			Created with Pixso.
	</desc>
	<defs>
		<linearGradient id="paint_linear_5_66_0" x1="-0.895996" y1="122.018471" x2="7.658883" y2="122.018471" gradientUnits="userSpaceOnUse">
			<stop stop-color="#FFE929"/>
			<stop offset="1.000000" stop-color="#FC9801"/>
		</linearGradient>
		<linearGradient id="paint_linear_5_75_0" x1="-0.895996" y1="118.728096" x2="7.658883" y2="118.728096" gradientUnits="userSpaceOnUse">
			<stop stop-color="#FFE929"/>
			<stop offset="1.000000" stop-color="#FC9801"/>
		</linearGradient>
		<linearGradient id="paint_linear_5_84_0" x1="-0.895996" y1="115.437538" x2="7.658883" y2="115.437538" gradientUnits="userSpaceOnUse">
			<stop stop-color="#FFE929"/>
			<stop offset="1.000000" stop-color="#FC9801"/>
		</linearGradient>
	</defs>
	<path id="Vector" d="M7.65 11.42C7.65 12.02 7.49 12.57 7.2 13.04C6.5 14.2 5.05 14.94 3.38 14.94C1.7 14.94 0.26 14.2 -0.45 13.04C-0.74 12.57 -0.9 12.02 -0.9 11.42C-0.9 10.39 -0.42 9.46 0.35 8.79C1.13 8.12 2.19 7.7 3.38 7.7C4.56 7.7 5.63 8.12 6.4 8.79C7.17 9.46 7.65 10.39 7.65 11.42Z" fill="#CE9024" fill-opacity="1.000000" fill-rule="nonzero"/>
	<path id="Vector" d="M7.65 10.1C7.65 10.7 7.49 11.25 7.2 11.73C6.5 12.89 5.05 13.62 3.38 13.62C1.7 13.62 0.26 12.89 -0.45 11.73C-0.74 11.25 -0.9 10.7 -0.9 10.1C-0.9 9.08 -0.42 8.15 0.35 7.48C1.13 6.8 2.19 6.38 3.38 6.38C4.56 6.38 5.63 6.8 6.4 7.47C7.17 8.15 7.65 9.08 7.65 10.1Z" fill="#0DB0F7" fill-opacity="1.000000" fill-rule="nonzero"/>
	<path id="Vector" d="M7.65 10.1C7.65 10.7 7.49 11.25 7.2 11.73C6.5 12.89 5.05 13.62 3.38 13.62C1.7 13.62 0.26 12.89 -0.45 11.73C-0.74 11.25 -0.9 10.7 -0.9 10.1C-0.9 9.08 -0.42 8.15 0.35 7.48C1.13 6.8 2.19 6.38 3.38 6.38C4.56 6.38 5.63 6.8 6.4 7.47C7.17 8.15 7.65 9.08 7.65 10.1Z" fill="url(#paint_linear_5_66_0)" fill-opacity="1.000000" fill-rule="nonzero"/>
	<path id="Vector" d="M7.65 8.13C7.65 8.73 7.49 9.28 7.2 9.75C6.5 10.91 5.05 11.65 3.38 11.65C1.7 11.65 0.26 10.91 -0.45 9.75C-0.74 9.28 -0.9 8.73 -0.9 8.13C-0.9 7.1 -0.42 6.17 0.35 5.5C1.13 4.82 2.19 4.41 3.38 4.41C4.56 4.41 5.63 4.82 6.4 5.5C7.17 6.17 7.65 7.1 7.65 8.13Z" fill="#CE9024" fill-opacity="1.000000" fill-rule="nonzero"/>
	<path id="Vector" d="M7.65 6.81C7.65 7.41 7.49 7.96 7.2 8.44C6.5 9.6 5.05 10.33 3.38 10.33C1.7 10.33 0.26 9.6 -0.45 8.44C-0.74 7.96 -0.9 7.41 -0.9 6.81C-0.9 5.79 -0.42 4.86 0.35 4.19C1.13 3.51 2.19 3.09 3.38 3.09C4.56 3.09 5.63 3.51 6.4 4.18C7.17 4.86 7.65 5.79 7.65 6.81Z" fill="#0DB0F7" fill-opacity="1.000000" fill-rule="nonzero"/>
	<path id="Vector" d="M7.65 6.81C7.65 7.41 7.49 7.96 7.2 8.44C6.5 9.6 5.05 10.33 3.38 10.33C1.7 10.33 0.26 9.6 -0.45 8.44C-0.74 7.96 -0.9 7.41 -0.9 6.81C-0.9 5.79 -0.42 4.86 0.35 4.19C1.13 3.51 2.19 3.09 3.38 3.09C4.56 3.09 5.63 3.51 6.4 4.18C7.17 4.86 7.65 5.79 7.65 6.81Z" fill="url(#paint_linear_5_75_0)" fill-opacity="1.000000" fill-rule="nonzero"/>
	<path id="Vector" d="M7.65 4.84C7.65 5.44 7.49 5.99 7.2 6.46C6.5 7.62 5.05 8.36 3.38 8.36C1.7 8.36 0.26 7.62 -0.45 6.46C-0.74 5.99 -0.9 5.44 -0.9 4.84C-0.9 3.81 -0.42 2.88 0.35 2.21C1.13 1.53 2.19 1.12 3.38 1.12C4.56 1.12 5.63 1.53 6.4 2.21C7.17 2.88 7.65 3.81 7.65 4.84Z" fill="#CE9024" fill-opacity="1.000000" fill-rule="nonzero"/>
	<path id="Vector" d="M7.65 3.52C7.65 4.12 7.49 4.67 7.2 5.15C6.5 6.31 5.05 7.04 3.38 7.04C1.7 7.04 0.26 6.31 -0.45 5.15C-0.74 4.67 -0.9 4.12 -0.9 3.52C-0.9 2.49 -0.42 1.57 0.35 0.9C1.13 0.22 2.19 -0.2 3.38 -0.2C4.56 -0.2 5.63 0.22 6.4 0.89C7.17 1.57 7.65 2.49 7.65 3.52Z" fill="#0DB0F7" fill-opacity="1.000000" fill-rule="nonzero"/>
	<path id="Vector" d="M7.65 3.52C7.65 4.12 7.49 4.67 7.2 5.15C6.5 6.31 5.05 7.04 3.38 7.04C1.7 7.04 0.26 6.31 -0.45 5.15C-0.74 4.67 -0.9 4.12 -0.9 3.52C-0.9 2.49 -0.42 1.57 0.35 0.9C1.13 0.22 2.19 -0.2 3.38 -0.2C4.56 -0.2 5.63 0.22 6.4 0.89C7.17 1.57 7.65 2.49 7.65 3.52Z" fill="url(#paint_linear_5_84_0)" fill-opacity="1.000000" fill-rule="nonzero"/>
</svg>
