<svg width="35" height="35" viewBox="0 0 35 35" fill="none" xmlns="http://www.w3.org/2000/svg">
<g clip-path="url(#clip0_62_5829)">
<path d="M26.3029 7.70666C26.5362 7.8763 26.6316 8.10249 26.5892 8.38523L23.8749 24.6709C23.8396 24.8759 23.7265 25.035 23.5356 25.1481C23.4367 25.2046 23.3271 25.2329 23.207 25.2329C23.1292 25.2329 23.0444 25.2152 22.9525 25.1799L18.1495 23.2184L15.5836 26.3462C15.4564 26.5087 15.2832 26.59 15.0641 26.59C14.9722 26.59 14.8945 26.5759 14.8308 26.5476C14.6965 26.4981 14.5887 26.4151 14.5075 26.2985C14.4262 26.1818 14.3855 26.0528 14.3855 25.9115V22.2111L23.5462 10.9829L12.212 20.7904L8.02392 19.0727C7.76239 18.9738 7.62102 18.7794 7.59981 18.4896C7.58567 18.2068 7.69877 17.9983 7.9391 17.864L25.582 7.68545C25.688 7.62184 25.8011 7.59003 25.9212 7.59003C26.0626 7.59003 26.1898 7.6289 26.3029 7.70666Z" fill="#0BB6F9"/>
</g>
<defs>
<clipPath id="clip0_62_5829">
<rect width="19.02" height="19" fill="white" transform="matrix(1 0 0 -1 7.58984 26.59)"/>
</clipPath>
</defs>
</svg>
