<svg width="30" height="29" viewBox="0 0 30 29" fill="none" xmlns="http://www.w3.org/2000/svg">
<path d="M13.8788 0.855066C13.3669 0.855066 12.8597 0.926168 12.3572 1.06837C11.8548 1.21057 11.3761 1.43335 10.921 1.73671L5.88711 5.09265C5.86815 5.09265 5.85393 5.09739 5.84445 5.10687C5.83497 5.11635 5.83023 5.12109 5.83023 5.12109C5.83023 5.12109 5.82075 5.12109 5.80179 5.12109C5.78283 5.12109 5.77335 5.12109 5.77335 5.12109C4.97702 5.23485 4.25654 5.41497 3.6119 5.66145C2.96725 5.90793 2.38897 6.28713 1.87705 6.79906C1.36513 7.31098 0.985925 7.88926 0.739444 8.5339C0.492962 9.17855 0.312842 9.89903 0.199081 10.6954C0.104281 11.4538 0.0474002 12.3307 0.0284401 13.3261C0.00948005 14.3215 0 15.4449 0 16.6962V16.8384C0 18.0898 0.00948005 19.2132 0.0284401 20.2086C0.0474002 21.204 0.104281 22.0809 0.199081 22.8393C0.312842 23.6356 0.492962 24.3561 0.739444 25.0007C0.985925 25.6454 1.36513 26.2237 1.87705 26.7356C2.38897 27.2475 2.96725 27.6267 3.6119 27.8732C4.25654 28.1197 4.97702 28.2998 5.77335 28.4136C6.55071 28.5084 7.43236 28.5652 8.41828 28.5842C9.40421 28.6032 10.5229 28.6126 11.7742 28.6126H15.9834C17.2347 28.6126 18.3581 28.6032 19.3535 28.5842C20.3489 28.5652 21.2258 28.5084 21.9842 28.4136C22.7806 28.2998 23.501 28.1197 24.1457 27.8732C24.7903 27.6267 25.3686 27.2475 25.8805 26.7356C26.5062 26.1099 26.9423 25.3752 27.1888 24.5315C27.4353 23.6878 27.5964 22.7161 27.6723 21.6164C28.0704 21.4457 28.4022 21.1898 28.6677 20.8485C28.9331 20.5072 29.0848 20.0996 29.1227 19.6256C29.1227 19.5876 29.1227 19.5497 29.1227 19.5118C29.1227 19.4739 29.1227 19.436 29.1227 19.398V14.1366C29.1227 14.0987 29.1227 14.0608 29.1227 14.0229C29.1227 13.9849 29.1227 13.947 29.1227 13.9091C29.0848 13.4351 28.9331 13.0274 28.6677 12.6862C28.4022 12.3449 28.0704 12.0889 27.6723 11.9183C27.5964 10.8186 27.4353 9.84689 27.1888 9.00317C26.9423 8.15944 26.5062 7.42474 25.8805 6.79906C25.3686 6.28713 24.7903 5.90793 24.1457 5.66145C23.501 5.41497 22.7806 5.23485 21.9842 5.12109C21.9842 5.12109 21.9795 5.12109 21.97 5.12109C21.9605 5.12109 21.9463 5.12109 21.9273 5.12109C21.9273 5.10213 21.9226 5.09265 21.9131 5.09265C21.9036 5.09265 21.8989 5.09265 21.8989 5.09265L16.8366 1.73671C16.4005 1.43335 15.9265 1.21057 15.4146 1.06837C14.9026 0.926168 14.3907 0.855066 13.8788 0.855066ZM13.8788 2.87432C14.2011 2.87432 14.5187 2.92172 14.8315 3.01652C15.1444 3.11132 15.443 3.24404 15.7274 3.41468L17.9742 4.92201C17.6708 4.92201 17.3532 4.92201 17.0214 4.92201C16.6896 4.92201 16.3436 4.92201 15.9834 4.92201H11.7742C11.4329 4.92201 11.0964 4.92201 10.7646 4.92201C10.4328 4.92201 10.1057 4.92201 9.78341 4.92201L12.0586 3.41468C12.3241 3.24404 12.6132 3.11132 12.926 3.01652C13.2389 2.92172 13.5565 2.87432 13.8788 2.87432ZM11.8595 6.94126H15.9265C17.2158 6.94126 18.3297 6.95074 19.2682 6.9697C20.2067 6.98866 21.0267 7.04554 21.7283 7.14034C22.4108 7.23514 22.9607 7.36786 23.3778 7.5385C23.7949 7.70914 24.1552 7.93666 24.4585 8.22106C24.7808 8.56234 25.0368 8.99843 25.2264 9.52931C25.416 10.0602 25.5487 10.7807 25.6246 11.6908H23.0081C21.5481 11.6908 20.2826 12.179 19.2113 13.1554C18.1401 14.1319 17.6044 15.3311 17.6044 16.7531C17.6044 18.1941 18.1401 19.4028 19.2113 20.3792C20.2826 21.3557 21.5481 21.8439 23.0081 21.8439H25.6246C25.5487 22.754 25.416 23.4745 25.2264 24.0053C25.0368 24.5362 24.7808 24.9628 24.4585 25.2851C24.1552 25.5885 23.7949 25.8255 23.3778 25.9961C22.9607 26.1668 22.4108 26.2995 21.7283 26.3943C21.0267 26.4891 20.2067 26.546 19.2682 26.565C18.3297 26.5839 17.2158 26.5934 15.9265 26.5934H11.8595C10.5703 26.5934 9.4516 26.5839 8.5036 26.565C7.5556 26.546 6.73083 26.4891 6.02931 26.3943C5.36571 26.2995 4.8206 26.1668 4.394 25.9961C3.9674 25.8255 3.6119 25.5885 3.3275 25.2851C3.04309 25.0007 2.81083 24.65 2.63071 24.2329C2.45059 23.8157 2.31313 23.2659 2.21833 22.5833C2.12353 21.8818 2.07139 21.0618 2.06191 20.1233C2.05243 19.1847 2.04769 18.0613 2.04769 16.7531C2.04769 15.4638 2.05243 14.3499 2.06191 13.4114C2.07139 12.4729 2.12353 11.6528 2.21833 10.9513C2.31313 10.2688 2.45059 9.71891 2.63071 9.30179C2.81083 8.88467 3.04309 8.52442 3.3275 8.22106C3.6119 7.93666 3.9674 7.70914 4.394 7.5385C4.8206 7.36786 5.36571 7.23514 6.02931 7.14034C6.73083 7.04554 7.5556 6.98866 8.5036 6.9697C9.4516 6.95074 10.5703 6.94126 11.8595 6.94126ZM6.42747 10.3256C6.14307 10.3256 5.90607 10.4252 5.71647 10.6243C5.52687 10.8233 5.43207 11.0651 5.43207 11.3495C5.43207 11.6339 5.52687 11.8756 5.71647 12.0747C5.90607 12.2738 6.14307 12.3733 6.42747 12.3733H11.8595C12.1439 12.3733 12.3809 12.2738 12.5705 12.0747C12.7601 11.8756 12.8549 11.6339 12.8549 11.3495C12.8549 11.0651 12.7601 10.8233 12.5705 10.6243C12.3809 10.4252 12.1439 10.3256 11.8595 10.3256H6.42747ZM23.0081 13.71H26.5346C26.5536 13.71 26.5726 13.71 26.5915 13.71C26.6105 13.71 26.6294 13.71 26.6484 13.71C26.6674 13.71 26.6768 13.71 26.6768 13.71C26.8285 13.729 26.9328 13.7764 26.9897 13.8522C27.0466 13.9281 27.0845 13.9944 27.1035 14.0513C27.1035 14.0703 27.1035 14.0892 27.1035 14.1082C27.1035 14.1271 27.1035 14.1461 27.1035 14.1651V19.3696C27.1035 19.3886 27.1035 19.4075 27.1035 19.4265C27.1035 19.4454 27.1035 19.4644 27.1035 19.4834C27.0845 19.5402 27.0466 19.6066 26.9897 19.6824C26.9328 19.7583 26.8285 19.8057 26.6768 19.8246C26.6768 19.8246 26.6674 19.8246 26.6484 19.8246C26.6294 19.8246 26.6105 19.8246 26.5915 19.8246C26.5726 19.8246 26.5536 19.8246 26.5346 19.8246H23.0081C22.0411 19.8246 21.24 19.5165 20.6049 18.9003C19.9697 18.2841 19.6521 17.5684 19.6521 16.7531C19.6521 15.9568 19.9697 15.2505 20.6049 14.6343C21.24 14.0181 22.0411 13.71 23.0081 13.71ZM22.6383 15.7577C22.3539 15.7577 22.1217 15.8572 21.9416 16.0563C21.7614 16.2554 21.6714 16.4877 21.6714 16.7531C21.6714 17.0375 21.7709 17.2792 21.97 17.4783C22.1691 17.6774 22.4013 17.7769 22.6668 17.7769H22.6952C22.9796 17.7769 23.2214 17.6774 23.4205 17.4783C23.6195 17.2792 23.7191 17.0375 23.7191 16.7531C23.7191 16.4877 23.6195 16.2554 23.4205 16.0563C23.2214 15.8572 22.9796 15.7577 22.6952 15.7577H22.6668C22.6668 15.7577 22.662 15.7577 22.6526 15.7577C22.6431 15.7577 22.6383 15.7577 22.6383 15.7577Z" fill="white"/>
</svg>
