<svg width="19" height="19" viewBox="0 0 19 19" fill="none" xmlns="http://www.w3.org/2000/svg">
<path d="M9.05469 0C8.7207 0 8.38981 0.0463867 8.06201 0.13916C7.73421 0.231934 7.42188 0.377279 7.125 0.575195L3.84082 2.76465C3.82845 2.76465 3.81917 2.76774 3.81299 2.77393C3.8068 2.78011 3.80371 2.7832 3.80371 2.7832C3.80371 2.7832 3.79753 2.7832 3.78516 2.7832C3.77279 2.7832 3.7666 2.7832 3.7666 2.7832C3.24707 2.85742 2.77702 2.97493 2.35645 3.13574C1.93587 3.29655 1.55859 3.54395 1.22461 3.87793C0.890625 4.21191 0.643229 4.58919 0.482422 5.00977C0.321615 5.43034 0.204102 5.90039 0.129883 6.41992C0.0680339 6.91471 0.0309245 7.48682 0.0185547 8.13623C0.0061849 8.78564 0 9.51855 0 10.335V10.4277C0 11.2441 0.0061849 11.9771 0.0185547 12.6265C0.0309245 13.2759 0.0680339 13.848 0.129883 14.3428C0.204102 14.8623 0.321615 15.3324 0.482422 15.7529C0.643229 16.1735 0.890625 16.5508 1.22461 16.8848C1.55859 17.2188 1.93587 17.4661 2.35645 17.627C2.77702 17.7878 3.24707 17.9053 3.7666 17.9795C4.27376 18.0413 4.84896 18.0785 5.49219 18.0908C6.13542 18.1032 6.86523 18.1094 7.68164 18.1094H10.4277C11.2441 18.1094 11.9771 18.1032 12.6265 18.0908C13.2759 18.0785 13.848 18.0413 14.3428 17.9795C14.8623 17.9053 15.3324 17.7878 15.7529 17.627C16.1735 17.4661 16.5508 17.2188 16.8848 16.8848C17.293 16.4766 17.5775 15.9972 17.7383 15.4468C17.8991 14.8963 18.0042 14.2624 18.0537 13.5449C18.3135 13.4336 18.5299 13.2666 18.7031 13.0439C18.8763 12.8213 18.9753 12.5553 19 12.2461C19 12.2214 19 12.1966 19 12.1719C19 12.1471 19 12.1224 19 12.0977V8.66504C19 8.6403 19 8.61556 19 8.59082C19 8.56608 19 8.54134 19 8.5166C18.9753 8.20736 18.8763 7.94141 18.7031 7.71875C18.5299 7.49609 18.3135 7.3291 18.0537 7.21777C18.0042 6.50033 17.8991 5.86637 17.7383 5.31592C17.5775 4.76546 17.293 4.28613 16.8848 3.87793C16.5508 3.54395 16.1735 3.29655 15.7529 3.13574C15.3324 2.97493 14.8623 2.85742 14.3428 2.7832C14.3428 2.7832 14.3397 2.7832 14.3335 2.7832C14.3273 2.7832 14.318 2.7832 14.3057 2.7832C14.3057 2.77083 14.3026 2.76465 14.2964 2.76465C14.2902 2.76465 14.2871 2.76465 14.2871 2.76465L10.9844 0.575195C10.6999 0.377279 10.3906 0.231934 10.0566 0.13916C9.72266 0.0463867 9.38867 0 9.05469 0ZM9.05469 1.31738C9.26497 1.31738 9.47217 1.34831 9.67627 1.41016C9.88037 1.47201 10.0752 1.55859 10.2607 1.66992L11.7266 2.65332C11.5286 2.65332 11.3215 2.65332 11.105 2.65332C10.8885 2.65332 10.6628 2.65332 10.4277 2.65332H7.68164C7.45898 2.65332 7.23942 2.65332 7.02295 2.65332C6.80648 2.65332 6.5931 2.65332 6.38281 2.65332L7.86719 1.66992C8.04036 1.55859 8.229 1.47201 8.43311 1.41016C8.63721 1.34831 8.8444 1.31738 9.05469 1.31738ZM7.7373 3.9707H10.3906C11.2318 3.9707 11.9585 3.97689 12.5708 3.98926C13.1831 4.00163 13.7181 4.03874 14.1758 4.10059C14.6211 4.16243 14.9798 4.24902 15.252 4.36035C15.5241 4.47168 15.7591 4.62012 15.957 4.80566C16.1673 5.02832 16.3343 5.31283 16.458 5.65918C16.5817 6.00553 16.6683 6.47559 16.7178 7.06934H15.0107C14.0583 7.06934 13.2326 7.38786 12.5337 8.0249C11.8348 8.66195 11.4854 9.44434 11.4854 10.3721C11.4854 11.3122 11.8348 12.1007 12.5337 12.7378C13.2326 13.3748 14.0583 13.6934 15.0107 13.6934H16.7178C16.6683 14.2871 16.5817 14.7572 16.458 15.1035C16.3343 15.4499 16.1673 15.7282 15.957 15.9385C15.7591 16.1364 15.5241 16.291 15.252 16.4023C14.9798 16.5137 14.6211 16.6003 14.1758 16.6621C13.7181 16.724 13.1831 16.7611 12.5708 16.7734C11.9585 16.7858 11.2318 16.792 10.3906 16.792H7.7373C6.89616 16.792 6.16634 16.7858 5.54785 16.7734C4.92936 16.7611 4.39128 16.724 3.93359 16.6621C3.50065 16.6003 3.14502 16.5137 2.8667 16.4023C2.58838 16.291 2.35645 16.1364 2.1709 15.9385C1.98535 15.7529 1.83382 15.5241 1.71631 15.252C1.5988 14.9798 1.50911 14.6211 1.44727 14.1758C1.38542 13.7181 1.3514 13.1831 1.34521 12.5708C1.33903 11.9585 1.33594 11.2256 1.33594 10.3721C1.33594 9.53092 1.33903 8.8042 1.34521 8.19189C1.3514 7.57959 1.38542 7.0446 1.44727 6.58691C1.50911 6.1416 1.5988 5.78288 1.71631 5.51074C1.83382 5.23861 1.98535 5.00358 2.1709 4.80566C2.35645 4.62012 2.58838 4.47168 2.8667 4.36035C3.14502 4.24902 3.50065 4.16243 3.93359 4.10059C4.39128 4.03874 4.92936 4.00163 5.54785 3.98926C6.16634 3.97689 6.89616 3.9707 7.7373 3.9707ZM4.19336 6.17871C4.00781 6.17871 3.85319 6.24365 3.72949 6.37354C3.60579 6.50342 3.54395 6.66113 3.54395 6.84668C3.54395 7.03223 3.60579 7.18994 3.72949 7.31982C3.85319 7.44971 4.00781 7.51465 4.19336 7.51465H7.7373C7.92285 7.51465 8.07747 7.44971 8.20117 7.31982C8.32487 7.18994 8.38672 7.03223 8.38672 6.84668C8.38672 6.66113 8.32487 6.50342 8.20117 6.37354C8.07747 6.24365 7.92285 6.17871 7.7373 6.17871H4.19336ZM15.0107 8.38672H17.3115C17.3239 8.38672 17.3363 8.38672 17.3486 8.38672C17.361 8.38672 17.3734 8.38672 17.3857 8.38672C17.3981 8.38672 17.4043 8.38672 17.4043 8.38672C17.5033 8.39909 17.5713 8.43001 17.6084 8.47949C17.6455 8.52897 17.6702 8.57227 17.6826 8.60938C17.6826 8.62175 17.6826 8.63411 17.6826 8.64648C17.6826 8.65885 17.6826 8.67122 17.6826 8.68359V12.0791C17.6826 12.0915 17.6826 12.1038 17.6826 12.1162C17.6826 12.1286 17.6826 12.141 17.6826 12.1533C17.6702 12.1904 17.6455 12.2337 17.6084 12.2832C17.5713 12.3327 17.5033 12.3636 17.4043 12.376C17.4043 12.376 17.3981 12.376 17.3857 12.376C17.3734 12.376 17.361 12.376 17.3486 12.376C17.3363 12.376 17.3239 12.376 17.3115 12.376H15.0107C14.3799 12.376 13.8573 12.175 13.4429 11.7729C13.0285 11.3709 12.8213 10.904 12.8213 10.3721C12.8213 9.85254 13.0285 9.39176 13.4429 8.98975C13.8573 8.58773 14.3799 8.38672 15.0107 8.38672ZM14.7695 9.72266C14.584 9.72266 14.4325 9.7876 14.3149 9.91748C14.1974 10.0474 14.1387 10.1989 14.1387 10.3721C14.1387 10.5576 14.2036 10.7153 14.3335 10.8452C14.4634 10.9751 14.6149 11.04 14.7881 11.04H14.8066C14.9922 11.04 15.1499 10.9751 15.2798 10.8452C15.4097 10.7153 15.4746 10.5576 15.4746 10.3721C15.4746 10.1989 15.4097 10.0474 15.2798 9.91748C15.1499 9.7876 14.9922 9.72266 14.8066 9.72266H14.7881C14.7881 9.72266 14.785 9.72266 14.7788 9.72266C14.7726 9.72266 14.7695 9.72266 14.7695 9.72266Z" fill="white"/>
</svg>
